<svg width="41" height="30" viewBox="0 0 41 30" fill="none" xmlns="http://www.w3.org/2000/svg">
<path fill-rule="evenodd" clip-rule="evenodd" d="M25.4545 26.25C25.4545 26.5815 25.3205 26.8995 25.0818 27.1339C24.8431 27.3683 24.5194 27.5 24.1818 27.5H3.81818C3.48063 27.5 3.15691 27.3683 2.91823 27.1339C2.67954 26.8995 2.54545 26.5815 2.54545 26.25V3.75C2.54545 3.41848 2.67954 3.10054 2.91823 2.86612C3.15691 2.6317 3.48063 2.5 3.81818 2.5H24.1818C24.5194 2.5 24.8431 2.6317 25.0818 2.86612C25.3205 3.10054 25.4545 3.41848 25.4545 3.75V8.75C25.4545 9.08152 25.5886 9.39946 25.8273 9.63388C26.066 9.8683 26.3897 10 26.7273 10C27.0648 10 27.3885 9.8683 27.6272 9.63388C27.8659 9.39946 28 9.08152 28 8.75V3.75C28 2.75544 27.5977 1.80161 26.8817 1.09835C26.1656 0.395088 25.1945 0 24.1818 0H3.81818C2.80554 0 1.83437 0.395088 1.11832 1.09835C0.402272 1.80161 0 2.75544 0 3.75L0 26.25C0 27.2446 0.402272 28.1984 1.11832 28.9017C1.83437 29.6049 2.80554 30 3.81818 30H24.1818C25.1945 30 26.1656 29.6049 26.8817 28.9017C27.5977 28.1984 28 27.2446 28 26.25V21.25C28 20.9185 27.8659 20.6005 27.6272 20.3661C27.3885 20.1317 27.0648 20 26.7273 20C26.3897 20 26.066 20.1317 25.8273 20.3661C25.5886 20.6005 25.4545 20.9185 25.4545 21.25V26.25Z" fill="white"/>
<path fill-rule="evenodd" clip-rule="evenodd" d="M40.6261 16.3596C40.7446 16.2468 40.8387 16.1128 40.9028 15.9653C40.967 15.8178 41 15.6597 41 15.5C41 15.3403 40.967 15.1822 40.9028 15.0347C40.8387 14.8872 40.7446 14.7532 40.6261 14.6404L32.9904 7.35604C32.7514 7.12807 32.4273 7 32.0894 7C31.7514 7 31.4273 7.12807 31.1883 7.35604C30.9494 7.58401 30.8151 7.8932 30.8151 8.2156C30.8151 8.538 30.9494 8.84719 31.1883 9.07516L36.653 14.2859H14.2726C13.9351 14.2859 13.6114 14.4138 13.3727 14.6415C13.1341 14.8692 13 15.178 13 15.5C13 15.822 13.1341 16.1308 13.3727 16.3585C13.6114 16.5862 13.9351 16.7141 14.2726 16.7141H36.653L31.1883 21.9248C30.9494 22.1528 30.8151 22.462 30.8151 22.7844C30.8151 23.1068 30.9494 23.416 31.1883 23.644C31.4273 23.8719 31.7514 24 32.0894 24C32.4273 24 32.7514 23.8719 32.9904 23.644L40.6261 16.3596Z" fill="white"/>
</svg>
