<svg width="253" height="72" viewBox="0 0 253 72" fill="none" xmlns="http://www.w3.org/2000/svg">
<path d="M15.0664 20.4082C15.0664 19.8809 14.9844 19.4121 14.8203 19.002C14.668 18.5918 14.3926 18.2168 13.9941 17.877C13.5957 17.5371 13.0332 17.209 12.3066 16.8926C11.5918 16.5645 10.6777 16.2305 9.56445 15.8906C8.3457 15.5156 7.2207 15.0996 6.18945 14.6426C5.16992 14.1738 4.2793 13.6348 3.51758 13.0254C2.75586 12.4043 2.16406 11.6953 1.74219 10.8984C1.32031 10.0898 1.10938 9.1582 1.10938 8.10352C1.10938 7.06055 1.32617 6.11133 1.75977 5.25586C2.20508 4.40039 2.83203 3.66211 3.64062 3.04102C4.46094 2.4082 5.42773 1.92187 6.54102 1.58203C7.6543 1.23047 8.88477 1.05469 10.2324 1.05469C12.1309 1.05469 13.7656 1.40625 15.1367 2.10938C16.5195 2.8125 17.5801 3.75586 18.3184 4.93945C19.0684 6.12305 19.4434 7.42969 19.4434 8.85938H15.0664C15.0664 8.01562 14.8848 7.27148 14.5215 6.62695C14.1699 5.9707 13.6309 5.45508 12.9043 5.08008C12.1895 4.70508 11.2812 4.51758 10.1797 4.51758C9.13672 4.51758 8.26953 4.67578 7.57812 4.99219C6.88672 5.30859 6.37109 5.73633 6.03125 6.27539C5.69141 6.81445 5.52148 7.42383 5.52148 8.10352C5.52148 8.58398 5.63281 9.02344 5.85547 9.42188C6.07812 9.80859 6.41797 10.1719 6.875 10.5117C7.33203 10.8398 7.90625 11.1504 8.59766 11.4434C9.28906 11.7363 10.1035 12.0176 11.041 12.2871C12.459 12.709 13.6953 13.1777 14.75 13.6934C15.8047 14.1973 16.6836 14.7715 17.3867 15.416C18.0898 16.0605 18.6172 16.793 18.9688 17.6133C19.3203 18.4219 19.4961 19.3418 19.4961 20.373C19.4961 21.4512 19.2793 22.4238 18.8457 23.291C18.4121 24.1465 17.791 24.8789 16.9824 25.4883C16.1855 26.0859 15.2246 26.5488 14.0996 26.877C12.9863 27.1934 11.7441 27.3516 10.373 27.3516C9.14258 27.3516 7.92969 27.1875 6.73438 26.8594C5.55078 26.5312 4.47266 26.0332 3.5 25.3652C2.52734 24.6855 1.75391 23.8418 1.17969 22.834C0.605469 21.8145 0.318359 20.625 0.318359 19.2656H4.73047C4.73047 20.0977 4.87109 20.8066 5.15234 21.3926C5.44531 21.9785 5.84961 22.459 6.36523 22.834C6.88086 23.1973 7.47852 23.4668 8.1582 23.6426C8.84961 23.8184 9.58789 23.9062 10.373 23.9062C11.4043 23.9062 12.2656 23.7598 12.957 23.4668C13.6602 23.1738 14.1875 22.7637 14.5391 22.2363C14.8906 21.709 15.0664 21.0996 15.0664 20.4082ZM31.6953 7.98047V11.0742H20.9727V7.98047H31.6953ZM24.0664 3.32227H28.3027V21.7441C28.3027 22.3301 28.3848 22.7812 28.5488 23.0977C28.7246 23.4023 28.9648 23.6074 29.2695 23.7129C29.5742 23.8184 29.9316 23.8711 30.3418 23.8711C30.6348 23.8711 30.916 23.8535 31.1855 23.8184C31.4551 23.7832 31.6719 23.748 31.8359 23.7129L31.8535 26.9473C31.502 27.0527 31.0918 27.1465 30.623 27.2285C30.166 27.3105 29.6387 27.3516 29.041 27.3516C28.0684 27.3516 27.207 27.1816 26.457 26.8418C25.707 26.4902 25.1211 25.9219 24.6992 25.1367C24.2773 24.3516 24.0664 23.3086 24.0664 22.0078V3.32227ZM46.4082 22.5176V7.98047H50.6621V27H46.6543L46.4082 22.5176ZM47.0059 18.5625L48.4297 18.5273C48.4297 19.8047 48.2891 20.9824 48.0078 22.0605C47.7266 23.127 47.293 24.0586 46.707 24.8555C46.1211 25.6406 45.3711 26.2559 44.457 26.7012C43.543 27.1348 42.4473 27.3516 41.1699 27.3516C40.2441 27.3516 39.3945 27.2168 38.6211 26.9473C37.8477 26.6777 37.1797 26.2617 36.6172 25.6992C36.0664 25.1367 35.6387 24.4043 35.334 23.502C35.0293 22.5996 34.877 21.5215 34.877 20.2676V7.98047H39.1133V20.3027C39.1133 20.9941 39.1953 21.5742 39.3594 22.043C39.5234 22.5 39.7461 22.8691 40.0273 23.1504C40.3086 23.4316 40.6367 23.6309 41.0117 23.748C41.3867 23.8652 41.7852 23.9238 42.207 23.9238C43.4141 23.9238 44.3633 23.6895 45.0547 23.2207C45.7578 22.7402 46.2559 22.0957 46.5488 21.2871C46.8535 20.4785 47.0059 19.5703 47.0059 18.5625ZM66.6055 23.0625V0H70.8594V27H67.0098L66.6055 23.0625ZM54.2305 17.7012V17.332C54.2305 15.8906 54.4004 14.5781 54.7402 13.3945C55.0801 12.1992 55.5723 11.1738 56.2168 10.3184C56.8613 9.45117 57.6465 8.78906 58.5723 8.33203C59.498 7.86328 60.541 7.62891 61.7012 7.62891C62.8496 7.62891 63.8574 7.85156 64.7246 8.29688C65.5918 8.74219 66.3301 9.38086 66.9395 10.2129C67.5488 11.0332 68.0352 12.0176 68.3984 13.166C68.7617 14.3027 69.0195 15.5684 69.1719 16.9629V18.1406C69.0195 19.5 68.7617 20.7422 68.3984 21.8672C68.0352 22.9922 67.5488 23.9648 66.9395 24.7852C66.3301 25.6055 65.5859 26.2383 64.707 26.6836C63.8398 27.1289 62.8262 27.3516 61.666 27.3516C60.5176 27.3516 59.4805 27.1113 58.5547 26.6309C57.6406 26.1504 56.8613 25.4766 56.2168 24.6094C55.5723 23.7422 55.0801 22.7227 54.7402 21.5508C54.4004 20.3672 54.2305 19.084 54.2305 17.7012ZM58.4668 17.332V17.7012C58.4668 18.5684 58.543 19.377 58.6953 20.127C58.8594 20.877 59.1113 21.5391 59.4512 22.1133C59.791 22.6758 60.2305 23.1211 60.7695 23.4492C61.3203 23.7656 61.9766 23.9238 62.7383 23.9238C63.6992 23.9238 64.4902 23.7129 65.1113 23.291C65.7324 22.8691 66.2188 22.3008 66.5703 21.5859C66.9336 20.8594 67.1797 20.0508 67.3086 19.1602V15.9785C67.2383 15.2871 67.0918 14.6426 66.8691 14.0449C66.6582 13.4473 66.3711 12.9258 66.0078 12.4805C65.6445 12.0234 65.1934 11.6719 64.6543 11.4258C64.127 11.168 63.5 11.0391 62.7734 11.0391C62 11.0391 61.3438 11.2031 60.8047 11.5312C60.2656 11.8594 59.8203 12.3105 59.4688 12.8848C59.1289 13.459 58.877 14.127 58.7129 14.8887C58.5488 15.6504 58.4668 16.4648 58.4668 17.332ZM83.6738 27.3516C82.2676 27.3516 80.9961 27.123 79.8594 26.666C78.7344 26.1973 77.7734 25.5469 76.9766 24.7148C76.1914 23.8828 75.5879 22.9043 75.166 21.7793C74.7441 20.6543 74.5332 19.4414 74.5332 18.1406V17.4375C74.5332 15.9492 74.75 14.6016 75.1836 13.3945C75.6172 12.1875 76.2207 11.1562 76.9941 10.3008C77.7676 9.43359 78.6816 8.77148 79.7363 8.31445C80.791 7.85742 81.9336 7.62891 83.1641 7.62891C84.5234 7.62891 85.7129 7.85742 86.7324 8.31445C87.752 8.77148 88.5957 9.41602 89.2637 10.248C89.9434 11.0684 90.4473 12.0469 90.7754 13.1836C91.1152 14.3203 91.2852 15.5742 91.2852 16.9453V18.7559H76.5898V15.7148H87.1016V15.3809C87.0781 14.6191 86.9258 13.9043 86.6445 13.2363C86.375 12.5684 85.959 12.0293 85.3965 11.6191C84.834 11.209 84.084 11.0039 83.1465 11.0039C82.4434 11.0039 81.8164 11.1562 81.2656 11.4609C80.7266 11.7539 80.2754 12.1816 79.9121 12.7441C79.5488 13.3066 79.2676 13.9863 79.0684 14.7832C78.8809 15.5684 78.7871 16.4531 78.7871 17.4375V18.1406C78.7871 18.9727 78.8984 19.7461 79.1211 20.4609C79.3555 21.1641 79.6953 21.7793 80.1406 22.3066C80.5859 22.834 81.125 23.25 81.7578 23.5547C82.3906 23.8477 83.1113 23.9941 83.9199 23.9941C84.9395 23.9941 85.8477 23.7891 86.6445 23.3789C87.4414 22.9688 88.1328 22.3887 88.7188 21.6387L90.9512 23.8008C90.541 24.3984 90.0078 24.9727 89.3516 25.5234C88.6953 26.0625 87.8926 26.502 86.9434 26.8418C86.0059 27.1816 84.916 27.3516 83.6738 27.3516ZM98.791 12.041V27H94.5547V7.98047H98.5449L98.791 12.041ZM98.0352 16.7871L96.6641 16.7695C96.6758 15.4219 96.8633 14.1855 97.2266 13.0605C97.6016 11.9355 98.1172 10.9688 98.7734 10.1602C99.4414 9.35156 100.238 8.73047 101.164 8.29688C102.09 7.85156 103.121 7.62891 104.258 7.62891C105.172 7.62891 105.998 7.75781 106.736 8.01562C107.486 8.26172 108.125 8.66602 108.652 9.22852C109.191 9.79102 109.602 10.5234 109.883 11.4258C110.164 12.3164 110.305 13.4121 110.305 14.7129V27H106.051V14.6953C106.051 13.7812 105.916 13.0605 105.646 12.5332C105.389 11.9941 105.008 11.6133 104.504 11.3906C104.012 11.1562 103.396 11.0391 102.658 11.0391C101.932 11.0391 101.281 11.1914 100.707 11.4961C100.133 11.8008 99.6465 12.2168 99.248 12.7441C98.8613 13.2715 98.5625 13.8809 98.3516 14.5723C98.1406 15.2637 98.0352 16.002 98.0352 16.7871ZM123.348 7.98047V11.0742H112.625V7.98047H123.348ZM115.719 3.32227H119.955V21.7441C119.955 22.3301 120.037 22.7812 120.201 23.0977C120.377 23.4023 120.617 23.6074 120.922 23.7129C121.227 23.8184 121.584 23.8711 121.994 23.8711C122.287 23.8711 122.568 23.8535 122.838 23.8184C123.107 23.7832 123.324 23.748 123.488 23.7129L123.506 26.9473C123.154 27.0527 122.744 27.1465 122.275 27.2285C121.818 27.3105 121.291 27.3516 120.693 27.3516C119.721 27.3516 118.859 27.1816 118.109 26.8418C117.359 26.4902 116.773 25.9219 116.352 25.1367C115.93 24.3516 115.719 23.3086 115.719 22.0078V3.32227ZM149.469 20.4082C149.469 19.8809 149.387 19.4121 149.223 19.002C149.07 18.5918 148.795 18.2168 148.396 17.877C147.998 17.5371 147.436 17.209 146.709 16.8926C145.994 16.5645 145.08 16.2305 143.967 15.8906C142.748 15.5156 141.623 15.0996 140.592 14.6426C139.572 14.1738 138.682 13.6348 137.92 13.0254C137.158 12.4043 136.566 11.6953 136.145 10.8984C135.723 10.0898 135.512 9.1582 135.512 8.10352C135.512 7.06055 135.729 6.11133 136.162 5.25586C136.607 4.40039 137.234 3.66211 138.043 3.04102C138.863 2.4082 139.83 1.92187 140.943 1.58203C142.057 1.23047 143.287 1.05469 144.635 1.05469C146.533 1.05469 148.168 1.40625 149.539 2.10938C150.922 2.8125 151.982 3.75586 152.721 4.93945C153.471 6.12305 153.846 7.42969 153.846 8.85938H149.469C149.469 8.01562 149.287 7.27148 148.924 6.62695C148.572 5.9707 148.033 5.45508 147.307 5.08008C146.592 4.70508 145.684 4.51758 144.582 4.51758C143.539 4.51758 142.672 4.67578 141.98 4.99219C141.289 5.30859 140.773 5.73633 140.434 6.27539C140.094 6.81445 139.924 7.42383 139.924 8.10352C139.924 8.58398 140.035 9.02344 140.258 9.42188C140.48 9.80859 140.82 10.1719 141.277 10.5117C141.734 10.8398 142.309 11.1504 143 11.4434C143.691 11.7363 144.506 12.0176 145.443 12.2871C146.861 12.709 148.098 13.1777 149.152 13.6934C150.207 14.1973 151.086 14.7715 151.789 15.416C152.492 16.0605 153.02 16.793 153.371 17.6133C153.723 18.4219 153.898 19.3418 153.898 20.373C153.898 21.4512 153.682 22.4238 153.248 23.291C152.814 24.1465 152.193 24.8789 151.385 25.4883C150.588 26.0859 149.627 26.5488 148.502 26.877C147.389 27.1934 146.146 27.3516 144.775 27.3516C143.545 27.3516 142.332 27.1875 141.137 26.8594C139.953 26.5312 138.875 26.0332 137.902 25.3652C136.93 24.6855 136.156 23.8418 135.582 22.834C135.008 21.8145 134.721 20.625 134.721 19.2656H139.133C139.133 20.0977 139.273 20.8066 139.555 21.3926C139.848 21.9785 140.252 22.459 140.768 22.834C141.283 23.1973 141.881 23.4668 142.561 23.6426C143.252 23.8184 143.99 23.9062 144.775 23.9062C145.807 23.9062 146.668 23.7598 147.359 23.4668C148.062 23.1738 148.59 22.7637 148.941 22.2363C149.293 21.709 149.469 21.0996 149.469 20.4082ZM165.764 27.3516C164.357 27.3516 163.086 27.123 161.949 26.666C160.824 26.1973 159.863 25.5469 159.066 24.7148C158.281 23.8828 157.678 22.9043 157.256 21.7793C156.834 20.6543 156.623 19.4414 156.623 18.1406V17.4375C156.623 15.9492 156.84 14.6016 157.273 13.3945C157.707 12.1875 158.311 11.1562 159.084 10.3008C159.857 9.43359 160.771 8.77148 161.826 8.31445C162.881 7.85742 164.023 7.62891 165.254 7.62891C166.613 7.62891 167.803 7.85742 168.822 8.31445C169.842 8.77148 170.686 9.41602 171.354 10.248C172.033 11.0684 172.537 12.0469 172.865 13.1836C173.205 14.3203 173.375 15.5742 173.375 16.9453V18.7559H158.68V15.7148H169.191V15.3809C169.168 14.6191 169.016 13.9043 168.734 13.2363C168.465 12.5684 168.049 12.0293 167.486 11.6191C166.924 11.209 166.174 11.0039 165.236 11.0039C164.533 11.0039 163.906 11.1562 163.355 11.4609C162.816 11.7539 162.365 12.1816 162.002 12.7441C161.639 13.3066 161.357 13.9863 161.158 14.7832C160.971 15.5684 160.877 16.4531 160.877 17.4375V18.1406C160.877 18.9727 160.988 19.7461 161.211 20.4609C161.445 21.1641 161.785 21.7793 162.23 22.3066C162.676 22.834 163.215 23.25 163.848 23.5547C164.48 23.8477 165.201 23.9941 166.01 23.9941C167.029 23.9941 167.938 23.7891 168.734 23.3789C169.531 22.9688 170.223 22.3887 170.809 21.6387L173.041 23.8008C172.631 24.3984 172.098 24.9727 171.441 25.5234C170.785 26.0625 169.982 26.502 169.033 26.8418C168.096 27.1816 167.006 27.3516 165.764 27.3516ZM184.449 23.9766C185.141 23.9766 185.762 23.8418 186.312 23.5723C186.875 23.291 187.326 22.9043 187.666 22.4121C188.018 21.9199 188.211 21.3516 188.246 20.707H192.236C192.213 21.9375 191.85 23.0566 191.146 24.0645C190.443 25.0723 189.512 25.875 188.352 26.4727C187.191 27.0586 185.908 27.3516 184.502 27.3516C183.049 27.3516 181.783 27.1055 180.705 26.6133C179.627 26.1094 178.73 25.418 178.016 24.5391C177.301 23.6602 176.762 22.6465 176.398 21.498C176.047 20.3496 175.871 19.1191 175.871 17.8066V17.1914C175.871 15.8789 176.047 14.6484 176.398 13.5C176.762 12.3398 177.301 11.3203 178.016 10.4414C178.73 9.5625 179.627 8.87695 180.705 8.38477C181.783 7.88086 183.043 7.62891 184.484 7.62891C186.008 7.62891 187.344 7.93359 188.492 8.54297C189.641 9.14062 190.543 9.97852 191.199 11.0566C191.867 12.123 192.213 13.3652 192.236 14.7832H188.246C188.211 14.0801 188.035 13.4473 187.719 12.8848C187.414 12.3105 186.98 11.8535 186.418 11.5137C185.867 11.1738 185.205 11.0039 184.432 11.0039C183.576 11.0039 182.867 11.1797 182.305 11.5312C181.742 11.8711 181.303 12.3398 180.986 12.9375C180.67 13.5234 180.441 14.1855 180.301 14.9238C180.172 15.6504 180.107 16.4062 180.107 17.1914V17.8066C180.107 18.5918 180.172 19.3535 180.301 20.0918C180.43 20.8301 180.652 21.4922 180.969 22.0781C181.297 22.6523 181.742 23.1152 182.305 23.4668C182.867 23.8066 183.582 23.9766 184.449 23.9766ZM204.207 7.98047V11.0742H193.484V7.98047H204.207ZM196.578 3.32227H200.814V21.7441C200.814 22.3301 200.896 22.7812 201.061 23.0977C201.236 23.4023 201.477 23.6074 201.781 23.7129C202.086 23.8184 202.443 23.8711 202.854 23.8711C203.146 23.8711 203.428 23.8535 203.697 23.8184C203.967 23.7832 204.184 23.748 204.348 23.7129L204.365 26.9473C204.014 27.0527 203.604 27.1465 203.135 27.2285C202.678 27.3105 202.15 27.3516 201.553 27.3516C200.58 27.3516 199.719 27.1816 198.969 26.8418C198.219 26.4902 197.633 25.9219 197.211 25.1367C196.789 24.3516 196.578 23.3086 196.578 22.0078V3.32227ZM212.012 7.98047V27H207.758V7.98047H212.012ZM207.477 2.98828C207.477 2.34375 207.688 1.81055 208.109 1.38867C208.543 0.955078 209.141 0.738281 209.902 0.738281C210.652 0.738281 211.244 0.955078 211.678 1.38867C212.111 1.81055 212.328 2.34375 212.328 2.98828C212.328 3.62109 212.111 4.14844 211.678 4.57031C211.244 4.99219 210.652 5.20312 209.902 5.20312C209.141 5.20312 208.543 4.99219 208.109 4.57031C207.688 4.14844 207.477 3.62109 207.477 2.98828ZM215.844 17.7012V17.2969C215.844 15.9258 216.043 14.6543 216.441 13.4824C216.84 12.2988 217.414 11.2734 218.164 10.4062C218.926 9.52734 219.852 8.84766 220.941 8.36719C222.043 7.875 223.285 7.62891 224.668 7.62891C226.062 7.62891 227.305 7.875 228.395 8.36719C229.496 8.84766 230.428 9.52734 231.189 10.4062C231.951 11.2734 232.531 12.2988 232.93 13.4824C233.328 14.6543 233.527 15.9258 233.527 17.2969V17.7012C233.527 19.0723 233.328 20.3438 232.93 21.5156C232.531 22.6875 231.951 23.7129 231.189 24.5918C230.428 25.459 229.502 26.1387 228.412 26.6309C227.322 27.1113 226.086 27.3516 224.703 27.3516C223.309 27.3516 222.061 27.1113 220.959 26.6309C219.869 26.1387 218.943 25.459 218.182 24.5918C217.42 23.7129 216.84 22.6875 216.441 21.5156C216.043 20.3438 215.844 19.0723 215.844 17.7012ZM220.08 17.2969V17.7012C220.08 18.5566 220.168 19.3652 220.344 20.127C220.52 20.8887 220.795 21.5566 221.17 22.1309C221.545 22.7051 222.025 23.1562 222.611 23.4844C223.197 23.8125 223.895 23.9766 224.703 23.9766C225.488 23.9766 226.168 23.8125 226.742 23.4844C227.328 23.1562 227.809 22.7051 228.184 22.1309C228.559 21.5566 228.834 20.8887 229.01 20.127C229.197 19.3652 229.291 18.5566 229.291 17.7012V17.2969C229.291 16.4531 229.197 15.6562 229.01 14.9062C228.834 14.1445 228.553 13.4707 228.166 12.8848C227.791 12.2988 227.311 11.8418 226.725 11.5137C226.15 11.1738 225.465 11.0039 224.668 11.0039C223.871 11.0039 223.18 11.1738 222.594 11.5137C222.02 11.8418 221.545 12.2988 221.17 12.8848C220.795 13.4707 220.52 14.1445 220.344 14.9062C220.168 15.6562 220.08 16.4531 220.08 17.2969ZM241.279 12.041V27H237.043V7.98047H241.033L241.279 12.041ZM240.523 16.7871L239.152 16.7695C239.164 15.4219 239.352 14.1855 239.715 13.0605C240.09 11.9355 240.605 10.9688 241.262 10.1602C241.93 9.35156 242.727 8.73047 243.652 8.29688C244.578 7.85156 245.609 7.62891 246.746 7.62891C247.66 7.62891 248.486 7.75781 249.225 8.01562C249.975 8.26172 250.613 8.66602 251.141 9.22852C251.68 9.79102 252.09 10.5234 252.371 11.4258C252.652 12.3164 252.793 13.4121 252.793 14.7129V27H248.539V14.6953C248.539 13.7812 248.404 13.0605 248.135 12.5332C247.877 11.9941 247.496 11.6133 246.992 11.3906C246.5 11.1562 245.885 11.0391 245.146 11.0391C244.42 11.0391 243.77 11.1914 243.195 11.4961C242.621 11.8008 242.135 12.2168 241.736 12.7441C241.35 13.2715 241.051 13.8809 240.84 14.5723C240.629 15.2637 240.523 16.002 240.523 16.7871ZM4.875 42.25V65H1.85938V42.25H4.875ZM13.5938 42.25V65H10.5781V42.25H13.5938ZM22.3125 42.25V65H19.2969V42.25H22.3125ZM35.7344 42.25V65H32.7656V42.25H35.7344ZM43.0469 42.25V44.7188H25.4688V42.25H43.0469ZM61.8438 54.3594H56.0781L56.0469 51.9375H61.2812C62.1458 51.9375 62.901 51.7917 63.5469 51.5C64.1927 51.2083 64.6927 50.7917 65.0469 50.25C65.4115 49.6979 65.5938 49.0417 65.5938 48.2812C65.5938 47.4479 65.4323 46.7708 65.1094 46.25C64.7969 45.7188 64.3125 45.3333 63.6562 45.0938C63.0104 44.8438 62.1875 44.7188 61.1875 44.7188H56.75V65H53.7344V42.25H61.1875C62.3542 42.25 63.3958 42.3698 64.3125 42.6094C65.2292 42.8385 66.0052 43.2031 66.6406 43.7031C67.2865 44.1927 67.776 44.8177 68.1094 45.5781C68.4427 46.3385 68.6094 47.25 68.6094 48.3125C68.6094 49.25 68.3698 50.099 67.8906 50.8594C67.4115 51.6094 66.7448 52.224 65.8906 52.7031C65.0469 53.1823 64.0573 53.4896 62.9219 53.625L61.8438 54.3594ZM61.7031 65H54.8906L56.5938 62.5469H61.7031C62.6615 62.5469 63.474 62.3802 64.1406 62.0469C64.8177 61.7135 65.3333 61.2448 65.6875 60.6406C66.0417 60.026 66.2188 59.3021 66.2188 58.4688C66.2188 57.625 66.0677 56.8958 65.7656 56.2812C65.4635 55.6667 64.9896 55.1927 64.3438 54.8594C63.6979 54.526 62.8646 54.3594 61.8438 54.3594H57.5469L57.5781 51.9375H63.4531L64.0938 52.8125C65.1875 52.9062 66.1146 53.2188 66.875 53.75C67.6354 54.2708 68.2135 54.9375 68.6094 55.75C69.0156 56.5625 69.2188 57.4583 69.2188 58.4375C69.2188 59.8542 68.9062 61.0521 68.2812 62.0312C67.6667 63 66.7969 63.7396 65.6719 64.25C64.5469 64.75 63.224 65 61.7031 65ZM76.125 41V65H73.2344V41H76.125ZM75.4375 55.9062L74.2344 55.8594C74.2448 54.7031 74.4167 53.6354 74.75 52.6562C75.0833 51.6667 75.5521 50.8073 76.1562 50.0781C76.7604 49.349 77.4792 48.7865 78.3125 48.3906C79.1562 47.9844 80.0885 47.7812 81.1094 47.7812C81.9427 47.7812 82.6927 47.8958 83.3594 48.125C84.026 48.3438 84.5938 48.6979 85.0625 49.1875C85.5417 49.6771 85.9062 50.3125 86.1562 51.0938C86.4062 51.8646 86.5312 52.8073 86.5312 53.9219V65H83.625V53.8906C83.625 53.0052 83.4948 52.2969 83.2344 51.7656C82.974 51.224 82.5938 50.8333 82.0938 50.5938C81.5938 50.3438 80.9792 50.2188 80.25 50.2188C79.5312 50.2188 78.875 50.3698 78.2812 50.6719C77.6979 50.974 77.1927 51.3906 76.7656 51.9219C76.349 52.4531 76.0208 53.0625 75.7812 53.75C75.5521 54.4271 75.4375 55.1458 75.4375 55.9062ZM100.828 62.1094V53.4062C100.828 52.7396 100.693 52.1615 100.422 51.6719C100.161 51.1719 99.7656 50.7865 99.2344 50.5156C98.7031 50.2448 98.0469 50.1094 97.2656 50.1094C96.5365 50.1094 95.8958 50.2344 95.3438 50.4844C94.8021 50.7344 94.375 51.0625 94.0625 51.4688C93.7604 51.875 93.6094 52.3125 93.6094 52.7812H90.7188C90.7188 52.1771 90.875 51.5781 91.1875 50.9844C91.5 50.3906 91.9479 49.8542 92.5312 49.375C93.125 48.8854 93.8333 48.5 94.6562 48.2188C95.4896 47.9271 96.4167 47.7812 97.4375 47.7812C98.6667 47.7812 99.75 47.9896 100.688 48.4062C101.635 48.8229 102.375 49.4531 102.906 50.2969C103.448 51.1302 103.719 52.1771 103.719 53.4375V61.3125C103.719 61.875 103.766 62.474 103.859 63.1094C103.964 63.7448 104.115 64.2917 104.312 64.75V65H101.297C101.151 64.6667 101.036 64.224 100.953 63.6719C100.87 63.1094 100.828 62.5885 100.828 62.1094ZM101.328 54.75L101.359 56.7812H98.4375C97.6146 56.7812 96.8802 56.849 96.2344 56.9844C95.5885 57.1094 95.0469 57.3021 94.6094 57.5625C94.1719 57.8229 93.8385 58.151 93.6094 58.5469C93.3802 58.9323 93.2656 59.3854 93.2656 59.9062C93.2656 60.4375 93.3854 60.9219 93.625 61.3594C93.8646 61.7969 94.224 62.1458 94.7031 62.4062C95.1927 62.6562 95.7917 62.7812 96.5 62.7812C97.3854 62.7812 98.1667 62.5938 98.8438 62.2188C99.5208 61.8438 100.057 61.3854 100.453 60.8438C100.859 60.3021 101.078 59.776 101.109 59.2656L102.344 60.6562C102.271 61.0938 102.073 61.5781 101.75 62.1094C101.427 62.6406 100.995 63.151 100.453 63.6406C99.9219 64.1198 99.2865 64.5208 98.5469 64.8438C97.8177 65.1562 96.9948 65.3125 96.0781 65.3125C94.9323 65.3125 93.9271 65.0885 93.0625 64.6406C92.2083 64.1927 91.5417 63.5938 91.0625 62.8438C90.5938 62.0833 90.3594 61.2344 90.3594 60.2969C90.3594 59.3906 90.5365 58.5938 90.8906 57.9062C91.2448 57.2083 91.7552 56.6302 92.4219 56.1719C93.0885 55.7031 93.8906 55.349 94.8281 55.1094C95.7656 54.8698 96.8125 54.75 97.9688 54.75H101.328ZM119.219 48.0938H121.844V64.6406C121.844 66.1302 121.542 67.401 120.938 68.4531C120.333 69.5052 119.49 70.3021 118.406 70.8438C117.333 71.3958 116.094 71.6719 114.688 71.6719C114.104 71.6719 113.417 71.5781 112.625 71.3906C111.844 71.2135 111.073 70.9062 110.312 70.4688C109.562 70.0417 108.932 69.4635 108.422 68.7344L109.938 67.0156C110.646 67.8698 111.385 68.4635 112.156 68.7969C112.938 69.1302 113.708 69.2969 114.469 69.2969C115.385 69.2969 116.177 69.125 116.844 68.7812C117.51 68.4375 118.026 67.9271 118.391 67.25C118.766 66.5833 118.953 65.7604 118.953 64.7812V51.8125L119.219 48.0938ZM107.578 56.7344V56.4062C107.578 55.1146 107.729 53.9427 108.031 52.8906C108.344 51.8281 108.786 50.9167 109.359 50.1562C109.943 49.3958 110.646 48.8125 111.469 48.4062C112.292 47.9896 113.219 47.7812 114.25 47.7812C115.312 47.7812 116.24 47.9688 117.031 48.3438C117.833 48.7083 118.51 49.2448 119.062 49.9531C119.625 50.651 120.068 51.4948 120.391 52.4844C120.714 53.474 120.938 54.5938 121.062 55.8438V57.2812C120.948 58.5208 120.724 59.6354 120.391 60.625C120.068 61.6146 119.625 62.4583 119.062 63.1562C118.51 63.8542 117.833 64.3906 117.031 64.7656C116.229 65.1302 115.292 65.3125 114.219 65.3125C113.208 65.3125 112.292 65.099 111.469 64.6719C110.656 64.2448 109.958 63.6458 109.375 62.875C108.792 62.1042 108.344 61.1979 108.031 60.1562C107.729 59.1042 107.578 57.9635 107.578 56.7344ZM110.469 56.4062V56.7344C110.469 57.5781 110.552 58.3698 110.719 59.1094C110.896 59.849 111.161 60.5 111.516 61.0625C111.88 61.625 112.344 62.0677 112.906 62.3906C113.469 62.7031 114.141 62.8594 114.922 62.8594C115.88 62.8594 116.672 62.6562 117.297 62.25C117.922 61.8438 118.417 61.3073 118.781 60.6406C119.156 59.974 119.448 59.25 119.656 58.4688V54.7031C119.542 54.1302 119.365 53.5781 119.125 53.0469C118.896 52.5052 118.594 52.026 118.219 51.6094C117.854 51.1823 117.401 50.8438 116.859 50.5938C116.318 50.3438 115.682 50.2188 114.953 50.2188C114.161 50.2188 113.479 50.3854 112.906 50.7188C112.344 51.0417 111.88 51.4896 111.516 52.0625C111.161 52.625 110.896 53.2812 110.719 54.0312C110.552 54.7708 110.469 55.5625 110.469 56.4062ZM136.203 62.1094V53.4062C136.203 52.7396 136.068 52.1615 135.797 51.6719C135.536 51.1719 135.141 50.7865 134.609 50.5156C134.078 50.2448 133.422 50.1094 132.641 50.1094C131.911 50.1094 131.271 50.2344 130.719 50.4844C130.177 50.7344 129.75 51.0625 129.438 51.4688C129.135 51.875 128.984 52.3125 128.984 52.7812H126.094C126.094 52.1771 126.25 51.5781 126.562 50.9844C126.875 50.3906 127.323 49.8542 127.906 49.375C128.5 48.8854 129.208 48.5 130.031 48.2188C130.865 47.9271 131.792 47.7812 132.812 47.7812C134.042 47.7812 135.125 47.9896 136.062 48.4062C137.01 48.8229 137.75 49.4531 138.281 50.2969C138.823 51.1302 139.094 52.1771 139.094 53.4375V61.3125C139.094 61.875 139.141 62.474 139.234 63.1094C139.339 63.7448 139.49 64.2917 139.688 64.75V65H136.672C136.526 64.6667 136.411 64.224 136.328 63.6719C136.245 63.1094 136.203 62.5885 136.203 62.1094ZM136.703 54.75L136.734 56.7812H133.812C132.99 56.7812 132.255 56.849 131.609 56.9844C130.964 57.1094 130.422 57.3021 129.984 57.5625C129.547 57.8229 129.214 58.151 128.984 58.5469C128.755 58.9323 128.641 59.3854 128.641 59.9062C128.641 60.4375 128.76 60.9219 129 61.3594C129.24 61.7969 129.599 62.1458 130.078 62.4062C130.568 62.6562 131.167 62.7812 131.875 62.7812C132.76 62.7812 133.542 62.5938 134.219 62.2188C134.896 61.8438 135.432 61.3854 135.828 60.8438C136.234 60.3021 136.453 59.776 136.484 59.2656L137.719 60.6562C137.646 61.0938 137.448 61.5781 137.125 62.1094C136.802 62.6406 136.37 63.151 135.828 63.6406C135.297 64.1198 134.661 64.5208 133.922 64.8438C133.193 65.1562 132.37 65.3125 131.453 65.3125C130.307 65.3125 129.302 65.0885 128.438 64.6406C127.583 64.1927 126.917 63.5938 126.438 62.8438C125.969 62.0833 125.734 61.2344 125.734 60.2969C125.734 59.3906 125.911 58.5938 126.266 57.9062C126.62 57.2083 127.13 56.6302 127.797 56.1719C128.464 55.7031 129.266 55.349 130.203 55.1094C131.141 54.8698 132.188 54.75 133.344 54.75H136.703ZM146.781 41V65H143.875V41H146.781ZM154.312 51.3438V71.5H151.406V48.0938H154.062L154.312 51.3438ZM165.703 56.4062V56.7344C165.703 57.9635 165.557 59.1042 165.266 60.1562C164.974 61.1979 164.547 62.1042 163.984 62.875C163.432 63.6458 162.75 64.2448 161.938 64.6719C161.125 65.099 160.193 65.3125 159.141 65.3125C158.068 65.3125 157.12 65.1354 156.297 64.7812C155.474 64.4271 154.776 63.9115 154.203 63.2344C153.63 62.5573 153.172 61.7448 152.828 60.7969C152.495 59.849 152.266 58.7812 152.141 57.5938V55.8438C152.266 54.5938 152.5 53.474 152.844 52.4844C153.188 51.4948 153.641 50.651 154.203 49.9531C154.776 49.2448 155.469 48.7083 156.281 48.3438C157.094 47.9688 158.031 47.7812 159.094 47.7812C160.156 47.7812 161.099 47.9896 161.922 48.4062C162.745 48.8125 163.438 49.3958 164 50.1562C164.562 50.9167 164.984 51.8281 165.266 52.8906C165.557 53.9427 165.703 55.1146 165.703 56.4062ZM162.797 56.7344V56.4062C162.797 55.5625 162.708 54.7708 162.531 54.0312C162.354 53.2812 162.078 52.625 161.703 52.0625C161.339 51.4896 160.87 51.0417 160.297 50.7188C159.724 50.3854 159.042 50.2188 158.25 50.2188C157.521 50.2188 156.885 50.3438 156.344 50.5938C155.812 50.8438 155.359 51.1823 154.984 51.6094C154.609 52.026 154.302 52.5052 154.062 53.0469C153.833 53.5781 153.661 54.1302 153.547 54.7031V58.75C153.755 59.4792 154.047 60.1667 154.422 60.8125C154.797 61.4479 155.297 61.9635 155.922 62.3594C156.547 62.7448 157.333 62.9375 158.281 62.9375C159.062 62.9375 159.734 62.776 160.297 62.4531C160.87 62.1198 161.339 61.6667 161.703 61.0938C162.078 60.5208 162.354 59.8646 162.531 59.125C162.708 58.375 162.797 57.5781 162.797 56.7344ZM179.734 61.0938V48.0938H182.641V65H179.875L179.734 61.0938ZM180.281 57.5312L181.484 57.5C181.484 58.625 181.365 59.6667 181.125 60.625C180.896 61.5729 180.521 62.3958 180 63.0938C179.479 63.7917 178.797 64.3385 177.953 64.7344C177.109 65.1198 176.083 65.3125 174.875 65.3125C174.052 65.3125 173.297 65.1927 172.609 64.9531C171.932 64.7135 171.349 64.3438 170.859 63.8438C170.37 63.3438 169.99 62.6927 169.719 61.8906C169.458 61.0885 169.328 60.125 169.328 59V48.0938H172.219V59.0312C172.219 59.7917 172.302 60.4219 172.469 60.9219C172.646 61.4115 172.88 61.8021 173.172 62.0938C173.474 62.375 173.807 62.5729 174.172 62.6875C174.547 62.8021 174.932 62.8594 175.328 62.8594C176.557 62.8594 177.531 62.625 178.25 62.1562C178.969 61.6771 179.484 61.0365 179.797 60.2344C180.12 59.4219 180.281 58.5208 180.281 57.5312ZM189.938 50.75V65H187.047V48.0938H189.859L189.938 50.75ZM195.219 48L195.203 50.6875C194.964 50.6354 194.734 50.6042 194.516 50.5938C194.307 50.5729 194.068 50.5625 193.797 50.5625C193.13 50.5625 192.542 50.6667 192.031 50.875C191.521 51.0833 191.089 51.375 190.734 51.75C190.38 52.125 190.099 52.5729 189.891 53.0938C189.693 53.6042 189.562 54.1667 189.5 54.7812L188.688 55.25C188.688 54.2292 188.786 53.2708 188.984 52.375C189.193 51.4792 189.51 50.6875 189.938 50C190.365 49.3021 190.906 48.7604 191.562 48.375C192.229 47.9792 193.021 47.7812 193.938 47.7812C194.146 47.7812 194.385 47.8073 194.656 47.8594C194.927 47.901 195.115 47.9479 195.219 48Z" fill="#202020"/>
</svg>
